<svg width="367" height="367" viewBox="0 0 367 367" fill="none" xmlns="http://www.w3.org/2000/svg">
<circle cx="183.5" cy="183.5" r="159" stroke="white" stroke-width="49"/>
<path d="M127.5 211C124 204.5 127.5 92 127.5 92C127.5 92 118.048 93.9256 112.5 96.5C102.318 101.225 96.2343 105.349 90.5004 115C88.2216 118.835 86.0005 124 86.0004 125.5C86.0003 127 86.0001 208.5 86.0004 217C86.0007 225.5 93.0004 236 93.0004 236C93.0004 236 103.765 250.974 114 255.5C122.133 259.096 127.618 259.433 136.5 259C143.27 258.67 147.508 258.669 153.5 255.5C158.876 252.657 161.936 250.253 165 245C168.5 239 184.5 186 184.5 186C184.5 186 199.284 240.418 203.5 245C207.717 249.582 209.985 252.609 215.5 255.5C222.864 259.36 228.194 259.358 236.5 259C245.398 258.617 250.728 257.346 258.5 253C266.816 248.35 270.977 244.096 276 236C280.169 229.281 280.741 224.578 283 217C284.54 211.836 284 132.5 283 125.5C282.358 121.004 280.451 118.824 278 115C271.78 105.295 265.487 101.286 255 96.5C249.607 94.0384 240.5 92 240.5 92C240.5 92 242.5 209 240.5 211C237.962 213.539 235.146 216.23 232 214.5C222 209 221 156.5 207.5 142.5C202.827 137.653 199.008 135.729 192.5 134C185.896 132.245 181.586 132.173 175 134C168.675 135.754 165.324 138.048 160.5 142.5C154 148.5 144 216.365 136.5 214.5C132.841 213.59 129.288 214.32 127.5 211Z" fill="white"/>
</svg>
